<svg xmlns="http://www.w3.org/2000/svg" xmlns:xlink="http://www.w3.org/1999/xlink" version="1.1" x="0px" y="0px" viewBox="0 0 90 112.5" enable-background="new 0 0 90 90" xml:space="preserve"><g><path d="M38.508,44.274c11.681,0,21.184-9.503,21.184-21.185c0-11.681-9.503-21.184-21.184-21.184S17.324,11.409,17.324,23.09   C17.324,34.771,26.827,44.274,38.508,44.274z M38.508,4.906c10.027,0,18.184,8.157,18.184,18.184   c0,10.027-8.157,18.185-18.184,18.185S20.324,33.117,20.324,23.09C20.324,13.063,28.481,4.906,38.508,4.906z"/><path d="M73.235,52.727c-1.726-5.13-5.142-8.976-11.289-12.861c-3.562-2.25-7.341-0.156-11.338,2.064   c-3.601,1.999-7.681,4.266-12.591,4.266c-4.669,0-8.889-2.203-12.612-4.147c-4.193-2.19-8.154-4.259-11.611-2.203   C3.145,46.18,1.25,51.965,1.25,65.082c0,6.006,1.5,10.419,4.586,13.493c5.314,5.292,14.512,5.743,25.315,5.743   c1.095,0,2.207-0.005,3.333-0.01c2.323-0.01,4.741-0.01,7.065,0c6.391,0.027,12.475,0.051,17.574-0.795   c3.148,2.837,7.301,4.58,11.862,4.58c9.795,0,17.764-7.968,17.764-17.762C88.75,61.301,81.97,53.838,73.235,52.727z M41.563,81.309   c-2.331-0.01-4.757-0.01-7.09,0c-11.563,0.049-21.549,0.09-26.519-4.859c-2.492-2.481-3.704-6.2-3.704-11.367   c0-12.254,1.528-16.978,11.078-22.659c1.919-1.145,4.552,0.124,8.688,2.284c3.83,1.999,8.596,4.488,14.001,4.488   c5.688,0,10.323-2.574,14.047-4.644c3.972-2.206,6.313-3.394,8.279-2.15c5.116,3.234,8.039,6.277,9.647,10.218   c-9.33,0.521-16.768,8.254-16.768,17.713c0,3.929,1.298,7.552,3.467,10.497C52.234,81.354,47.016,81.334,41.563,81.309z    M70.986,85.094c-8.151,0-14.763-6.607-14.763-14.762c0-8.152,6.611-14.764,14.763-14.764c8.155,0,14.764,6.611,14.764,14.764   C85.75,78.486,79.142,85.094,70.986,85.094z"/><polygon points="72.699,61.813 69.301,61.813 69.301,68.613 62.5,68.613 62.5,72.012 69.301,72.012 69.301,78.813 72.699,78.813    72.699,72.012 79.5,72.012 79.5,68.613 72.699,68.613  "/></g><text x="0" y="105" fill="#000000" font-size="5px" font-weight="bold" font-family="'Helvetica Neue', Helvetica, Arial-Unicode, Arial, Sans-serif">Created by João Paulo</text><text x="0" y="110" fill="#000000" font-size="5px" font-weight="bold" font-family="'Helvetica Neue', Helvetica, Arial-Unicode, Arial, Sans-serif">from the Noun Project</text></svg>