<svg xmlns="http://www.w3.org/2000/svg" xmlns:xlink="http://www.w3.org/1999/xlink" version="1.1" x="0px" y="0px" viewBox="0 0 100 125" enable-background="new 0 0 100 100" xml:space="preserve"><g><path fill="#000000" d="M56.202,27.061c0.093,0.188,0.281,0.297,0.478,0.297c0.079,0,0.159-0.018,0.234-0.055   c0.009-0.004,0.867-0.404,1.569-0.013c0.257,0.145,0.58,0.052,0.724-0.206c0.143-0.256,0.05-0.58-0.206-0.723   c-1.195-0.667-2.501-0.039-2.556-0.013C56.182,26.479,56.073,26.797,56.202,27.061z"/><path fill="#000000" d="M40.283,27.061c0.092,0.188,0.28,0.297,0.477,0.297c0.079,0,0.159-0.018,0.234-0.055   c0.009-0.004,0.864-0.404,1.567-0.013c0.256,0.145,0.58,0.052,0.724-0.206c0.143-0.256,0.05-0.58-0.206-0.723   c-1.197-0.667-2.498-0.039-2.554-0.013C40.262,26.479,40.153,26.797,40.283,27.061z"/><path fill="#000000" d="M47.551,42.869c0.669,0.137,1.391,0.206,2.146,0.206c0.731,0,1.43-0.06,2.077-0.179   c0.66-0.121,1.097-0.754,0.976-1.415c-0.122-0.659-0.749-1.099-1.415-0.975c-1.013,0.187-2.286,0.19-3.296-0.018   c-0.666-0.131-1.3,0.29-1.435,0.947C46.47,42.092,46.894,42.734,47.551,42.869z"/><path fill="#000000" d="M63.54,45.199c3.098-2.863,4.952-6.991,5.379-12.231c1.353,0.353,2.704,0.493,3.757,0.493   c1.801,0,3.267-1.366,3.267-3.044c0-0.479-0.091-0.921-0.263-1.316c0.849-0.48,1.647-1.471,1.647-3.493   c0-2.314-1.384-3.255-2.793-3.388c-0.539-1.919-2.002-4.465-4.938-4.465c-0.292,0-0.572,0.011-0.843,0.033   c-1.025-2.296-6.105-11.943-18.96-11.943c-10.957,0-16.049,7.295-18.067,11.467c-0.427-0.112-0.889-0.185-1.417-0.185   c-2.345,0-3.312,1.848-3.606,3.371c-1.646,0.124-4.184,0.77-4.184,4.143c0,2.085,0.857,3.325,1.881,4.017   c-0.299,0.451-0.496,1.029-0.496,1.76c0,1.678,1.466,3.044,3.267,3.044c1.344,0,2.503-0.297,3.48-0.79   c0.365,5.373,2.153,9.558,5.228,12.454c-4.362,1.045-8.449,2.547-11.955,4.471c-8.89,4.878-13.589,11.982-13.589,20.543v22.804   c0,0.671,0.544,1.215,1.215,1.215h76.902c0.671,0,1.215-0.544,1.215-1.215V71.489C89.666,58.272,77.687,48.904,63.54,45.199z    M69.596,19.915c2.453,0,2.981,3.42,3.002,3.563c0.041,0.294,0.208,0.557,0.449,0.729c0.243,0.172,0.548,0.237,0.842,0.179   c0.028-0.005,0.139-0.023,0.287-0.023c0.61,0,0.989,0.208,0.989,1.243c0,1.776-0.809,1.776-1.243,1.776   c-0.132,0-0.252-0.012-0.352-0.026c-0.264-0.073-0.439-0.09-0.439-0.09c-0.535-0.049-1.054,0.316-1.167,0.855   c-0.112,0.541,0.197,1.08,0.723,1.25c0,0,0.147,0.048,0.392,0.094c0.702,0.233,0.702,0.734,0.702,0.951   c0,0.545-0.573,0.882-1.104,0.882c-0.069,0-6.445-0.104-7.291-3.534c0.024-0.255,0.037-0.515,0.037-0.779   c0-0.427-0.041-0.833-0.109-1.224C65.529,20.361,67.24,19.915,69.596,19.915z M49.793,8.272c11.042,0,15.479,7.75,16.585,10.138   c-1.419,0.715-2.335,2.04-2.822,4.09c-1.345-1.23-3.36-1.922-5.89-1.922c-3.832,0-6.487,1.613-7.356,4.327h-1.121   c-0.879-2.714-3.565-4.327-7.442-4.327c-3.936,0-6.624,1.705-7.417,4.553c0.005-1.695,0.017-2.279,0.025-2.7   c0.007-0.292,0.012-0.517,0.012-0.986c0-1.139-0.225-2.045-0.653-2.736C35.298,15.153,39.668,8.272,49.793,8.272z M62.992,26.984   c0,2.895-2.19,4.917-5.326,4.917c-3.083,0-5.236-2.022-5.236-4.917c0-3.286,2.848-3.976,5.236-3.976   C59.655,23.009,62.992,23.525,62.992,26.984z M47.072,26.984c0,2.895-2.19,4.917-5.326,4.917c-3.083,0-5.236-2.022-5.236-4.917   c0-3.286,2.848-3.976,5.236-3.976C43.735,23.009,47.072,23.525,47.072,26.984z M32.193,22.386   c-0.012,0.537-0.028,1.309-0.028,4.325c0,2.279-1.716,4.587-4.995,4.587c-0.531,0-1.104-0.337-1.104-0.882   c0-0.759,0.57-0.955,0.896-1.002c0.567-0.065,0.98-0.561,0.95-1.131s-0.505-1.019-1.076-1.024c-0.505-0.004-2.154-0.207-2.154-2.62   c0-1.334,0.463-2.011,2.997-2.011c0.597,0,1.08-0.484,1.081-1.081c0-0.092,0.019-2.26,1.55-2.26c1.488,0,1.896,0.464,1.896,2.159   C32.204,21.894,32.199,22.107,32.193,22.386z M32.985,30.717c0.593-0.796,0.978-1.706,1.178-2.638   c0.504,3.68,3.532,6.252,7.583,6.252c4.368,0,7.562-2.923,7.739-6.995h0.531c0.174,4.072,3.331,6.995,7.649,6.995   c3.086,0,5.591-1.458,6.857-3.75c0.561,0.603,1.247,1.096,2.006,1.488c-0.54,9.874-6.391,15.312-16.668,15.312   C42.189,47.381,33.052,44.482,32.985,30.717z M56.621,52.049c-0.588-0.074-2.028-1.141-3.356-2.443   c1.402-0.172,2.72-0.452,3.947-0.838c0.001,0.008-0.002,0.016-0.001,0.024C57.306,49.384,57.374,51.085,56.621,52.049z    M47.831,49.738c-1.29,1.242-2.653,2.239-3.222,2.311c-0.621-0.797-0.68-2.088-0.629-2.85   C45.188,49.467,46.47,49.649,47.831,49.738z M87.236,91.728H12.764V70.139c0-9.627,6.704-15.327,12.328-18.413   c3.845-2.109,8.427-3.698,13.316-4.689c0.977,0.59,2.049,1.08,3.197,1.485c-0.093,0.671-0.354,3.409,1.265,5.236   c0.419,0.472,0.988,0.723,1.645,0.725c0.004,0,0.007,0,0.01,0c2.198,0,5.188-3.123,6.054-4.082   c0.018-0.019,0.022-0.044,0.038-0.064c0.016,0.02,0.021,0.045,0.038,0.064c0.865,0.958,3.854,4.082,6.052,4.082   c0.003,0,0.006,0,0.01,0c0.656-0.002,1.226-0.253,1.645-0.725c1.752-1.975,1.305-5.02,1.248-5.361   c-0.03-0.18-0.104-0.339-0.201-0.48c0.561-0.258,1.107-0.533,1.622-0.843c14,3.071,26.207,11.837,26.207,24.417V91.728z"/></g><text x="0" y="115" fill="#000000" font-size="5px" font-weight="bold" font-family="'Helvetica Neue', Helvetica, Arial-Unicode, Arial, Sans-serif">Created by Snehal Patil</text><text x="0" y="120" fill="#000000" font-size="5px" font-weight="bold" font-family="'Helvetica Neue', Helvetica, Arial-Unicode, Arial, Sans-serif">from the Noun Project</text></svg>