<svg xmlns="http://www.w3.org/2000/svg" xmlns:xlink="http://www.w3.org/1999/xlink" version="1.1" x="0px" y="0px" viewBox="0 0 100 125" enable-background="new 0 0 100 100" xml:space="preserve"><path fill="#000000" d="M56.341,43.6c-0.341-0.577-1.085-0.767-1.662-0.429c-0.016,0.01-1.461,0.842-3.527,1.045h-1.969  c-2.313-0.198-3.543-0.98-3.583-1.006c-0.552-0.374-1.302-0.235-1.682,0.314c-0.381,0.552-0.243,1.309,0.309,1.69  c0.087,0.06,2.18,1.476,6.03,1.476c3.229,0,5.566-1.373,5.664-1.431C56.495,44.917,56.682,44.175,56.341,43.6z"/><g><path fill="#000000" d="M42.697,35.182c-0.435,0-0.855-0.234-1.073-0.645c-0.315-0.592-0.091-1.328,0.501-1.643   c1.521-0.811,2.972-0.087,3.133-0.001c0.592,0.315,0.817,1.051,0.502,1.644c-0.312,0.587-1.036,0.814-1.626,0.511   c-0.042-0.019-0.48-0.213-0.867-0.008C43.085,35.136,42.89,35.182,42.697,35.182z"/></g><g><path fill="#000000" d="M56.821,35.181c-0.216,0-0.434-0.058-0.63-0.177c-0.074-0.041-0.407-0.205-0.71-0.012   c-0.567,0.359-1.317,0.191-1.676-0.376c-0.359-0.567-0.19-1.317,0.376-1.676c1.299-0.824,2.681-0.387,3.292,0   c0.567,0.359,0.735,1.11,0.376,1.677C57.617,34.981,57.224,35.181,56.821,35.181z"/></g><path fill="#000000" d="M68.859,49.43c0.246,0.014,0.488,0.036,0.74,0.036c5.674,0,9.341-4.106,9.341-10.461  c0-4.793-3.18-7.584-5.496-8.732c0.966-5.431-0.365-10.603-3.88-15.013c-4.536-5.691-12.702-9.666-19.857-9.666  c-7.172,0-13.451,2.486-17.682,7.001c-3.864,4.124-5.858,9.715-5.66,15.82c-1.71,0.896-5.339,3.511-5.339,9.577  c0,6.862,6.217,9.989,12.48,10.088c-10.153,3.69-17.803,11.197-17.803,23.086v22.024c0,0.671,0.544,1.215,1.215,1.215h66.166  c0.671,0,1.215-0.544,1.215-1.215v-20.72C84.298,62.389,78.353,54.095,68.859,49.43z M33.606,34.049  c7.191-1.293,20.854-6.15,26.049-12.05l6.337,9.331v3.166c-0.053,0.751-0.148,1.583-0.301,2.445  c-1.612,5.386-9.491,13.826-15.826,13.826c-7.064,0-15.494-9.108-16.206-15.368c-0.031-0.474-0.047-0.902-0.054-1.261V34.049z   M39.564,48.872c3.143,2.572,6.798,4.324,10.302,4.324c3.301,0,6.821-1.784,9.899-4.323c2.087,0.482,4.117,1.113,6.043,1.905  c-1.24,2.144-6.276,9.76-15.22,9.76c-10.635,0-15.584-6.839-17.227-9.793C35.328,49.961,37.413,49.344,39.564,48.872z   M81.868,91.977H18.132v-20.81c0-9.382,5.393-15.753,13.018-19.45c1.833,3.289,7.503,11.251,19.439,11.251  c10.618,0,16.204-8.924,17.447-11.182c8.048,3.999,13.833,10.944,13.833,20.686V91.977z"/><text x="0" y="115" fill="#000000" font-size="5px" font-weight="bold" font-family="'Helvetica Neue', Helvetica, Arial-Unicode, Arial, Sans-serif">Created by Snehal Patil</text><text x="0" y="120" fill="#000000" font-size="5px" font-weight="bold" font-family="'Helvetica Neue', Helvetica, Arial-Unicode, Arial, Sans-serif">from the Noun Project</text></svg>