<svg xmlns="http://www.w3.org/2000/svg" xmlns:xlink="http://www.w3.org/1999/xlink" version="1.1" x="0px" y="0px" viewBox="0 0 100 125" enable-background="new 0 0 100 100" xml:space="preserve"><path fill="#000000" d="M61.52,45.451c-0.121-0.022-0.237-0.025-0.356-0.011c-0.341-0.007-0.663-0.032-1.01-0.032H56.76  c-0.453,0-0.868,0.251-1.077,0.652c-0.011,0.021-1.193,2.059-5.422,2.059c-3.458,0-5.492-2.211-5.573-2.3  c-0.23-0.261-0.562-0.411-0.911-0.411h-3.869c-13.013,0-27.95,2.805-27.95,24.683v26.443c0,0.671,0.544,1.215,1.215,1.215h31.415  c0.002,0,0.004,0,0.006,0c0.001,0,0.002,0,0.002,0h42.23c0.671,0,1.215-0.544,1.215-1.215V71.577  C88.042,54.897,78.864,45.904,61.52,45.451z M57.374,47.837h1.972l-2.959,5.988l-3.417-3.553  C55.405,49.746,56.745,48.578,57.374,47.837z M50.062,68.154l2.914,27.164h-6.973L50.062,68.154z M50.25,56.65l-2.331-2.912  c-0.033-0.041-0.079-0.061-0.115-0.096l2.518-2.618l2.387,2.482L50.25,56.65z M47.716,50.226l-3.461,3.6l-2.959-5.988h1.983  C43.967,48.469,45.495,49.656,47.716,50.226z M14.388,70.09c0-18.907,11.464-22.055,24.203-22.243l4.252,8.605  c0.175,0.355,0.513,0.602,0.904,0.663c0.062,0.01,0.124,0.014,0.186,0.014c0.328,0,0.645-0.133,0.876-0.373l1.317-1.37l2.855,3.567  l-5.435,36.365H14.388V70.09z M85.612,95.318H55.42l-3.898-36.35l2.888-3.693l1.424,1.481c0.231,0.24,0.548,0.373,0.876,0.373  c0.062,0,0.124-0.004,0.186-0.014c0.391-0.061,0.729-0.308,0.904-0.663l4.229-8.558c15.637,0.586,23.584,8.531,23.584,23.683V95.318  z"/><g><path fill="#000000" d="M50.381,44.169c-16.503,0-16.979-13.439-16.979-14.972v-9.166c0-4.468,3.469-12.919,16.599-12.919   c6.938,0,10.876,2.471,12.958,4.543c2.288,2.278,3.654,5.41,3.654,8.375v9.537C66.612,36.304,62.361,44.169,50.381,44.169z    M50,9.542c-11.208,0-14.169,6.861-14.169,10.489v9.166c0,2.094,0.702,12.542,14.55,12.542c13.136,0,13.802-10.139,13.802-12.171   v-9.537C64.183,16.403,61.218,9.542,50,9.542z"/></g><path fill="#000000" d="M69.421,13.927c-0.926-4.377-5.746-6.613-5.951-6.706c-0.38-0.173-0.822-0.138-1.17,0.091l-0.171,0.113  c0.083-0.109,0.146-0.194,0.163-0.218c0.2-0.282,0.27-0.635,0.194-0.972c-0.077-0.336-0.292-0.625-0.594-0.792  c-0.234-0.13-5.82-3.191-13.301-3.191c-5.564,0-9.962,1.635-13.071,4.86c-4.975,5.161-4.766,12.469-4.755,12.777  c0.009,0.239,0.088,0.47,0.228,0.665l2.638,3.67c0.229,0.319,0.598,0.506,0.987,0.506c0.032,0,0.064-0.001,0.097-0.004  c0.424-0.034,0.8-0.287,0.99-0.667c0.077-0.153,1.884-3.782,2.915-7.289c0.508-1.727,2.85-1.909,7.292-2.103  c1.342-0.059,2.863-0.125,4.46-0.27c3.267-0.295,5.974-1.744,7.983-3.265c0.037,0.083,0.06,0.171,0.115,0.245  c1.589,2.125,5.714,8.449,5.714,12.139c0,0.536,0.352,1.009,0.865,1.164c0.116,0.035,0.233,0.052,0.35,0.052  c0.4,0,0.784-0.199,1.013-0.545C66.571,23.943,70.326,18.203,69.421,13.927z"/><path fill="#000000" d="M56.985,33.37l-5.67-1.423c-0.097-0.024-0.196-0.037-0.296-0.037h-2.43c-0.094,0-0.188,0.011-0.28,0.033  l-5.164,1.224c-0.653,0.155-1.057,0.809-0.902,1.462c0.154,0.653,0.808,1.056,1.462,0.902l4.675-1.108l3,0.045l5.013,1.258  c0.1,0.025,0.199,0.037,0.297,0.037c0.544,0,1.039-0.368,1.177-0.919C58.031,34.193,57.636,33.533,56.985,33.37z"/><g><path fill="#000000" d="M58.09,23.64h-2.249c-0.671,0-1.215-0.544-1.215-1.215s0.544-1.215,1.215-1.215h2.249   c0.671,0,1.215,0.544,1.215,1.215S58.761,23.64,58.09,23.64z"/></g><g><path fill="#000000" d="M44.802,23.64h-2.369c-0.671,0-1.215-0.544-1.215-1.215s0.544-1.215,1.215-1.215h2.369   c0.671,0,1.215,0.544,1.215,1.215S45.473,23.64,44.802,23.64z"/></g><g><path fill="#000000" d="M49.876,35.763c-1.76,0-3.335-0.871-3.509-0.971c-0.583-0.333-0.785-1.075-0.452-1.658   c0.332-0.582,1.071-0.784,1.654-0.454l0,0c0.011,0.006,1.172,0.652,2.307,0.652c1.185,0,1.779-0.486,1.804-0.507   c0.505-0.422,1.268-0.376,1.704,0.119c0.435,0.496,0.408,1.237-0.077,1.685C53.182,34.746,52.019,35.763,49.876,35.763z"/></g><text x="0" y="115" fill="#000000" font-size="5px" font-weight="bold" font-family="'Helvetica Neue', Helvetica, Arial-Unicode, Arial, Sans-serif">Created by Snehal Patil</text><text x="0" y="120" fill="#000000" font-size="5px" font-weight="bold" font-family="'Helvetica Neue', Helvetica, Arial-Unicode, Arial, Sans-serif">from the Noun Project</text></svg>