<svg xmlns="http://www.w3.org/2000/svg" xmlns:xlink="http://www.w3.org/1999/xlink" version="1.1" x="0px" y="0px" viewBox="0 0 100 125" enable-background="new 0 0 100 100" xml:space="preserve"><g><path d="M63.01,49.544H57.92c-0.381,0-0.744,0.184-0.974,0.488c-0.092,0.121-2.136,2.757-6.219,3.149   c-0.13-0.024-0.255-0.025-0.379-0.025c-0.179,0-0.362,0.001-0.555,0.075c-0.028,0-0.054,0.003-0.083,0.003   c-4.37,0-6.271-2.982-6.346-3.102c-0.22-0.365-0.615-0.588-1.041-0.588h-4.379c-13.172,0-19.575,10.224-19.575,31.258v12.604   c0,0.671,0.544,1.167,1.215,1.167c0.113,0,0.223-0.018,0.328-0.049h60.502c0.671,0,1.215-0.544,1.215-1.215V78.781   C81.63,59.381,75.365,49.544,63.01,49.544z M58.48,51.975h4.53c2.622,0,4.911,0.521,6.888,1.543   c-0.005,0.013-0.016,0.021-0.021,0.034c-0.033,0.087-3.295,8.454-15.577,10.061c-0.793-4.2-1.436-6.711-1.982-8.215   C55.606,54.712,57.653,52.868,58.48,51.975z M37.945,51.975h3.76c0.839,1.049,2.955,3.157,6.613,3.602   c-0.53,1.516-1.149,3.98-1.904,7.997c-11.399-1.73-14.023-10.201-14.136-10.584c-0.012-0.04-0.041-0.069-0.056-0.107   C33.931,52.277,35.835,51.975,37.945,51.975z M79.2,92.096H20.8V80.803c0-14.508,2.969-23.292,9.219-26.905   c0.547,1.632,4.193,10.831,17.251,12.236c0.637,0.07,1.212-0.365,1.325-0.991c0.504-2.782,1.19-5.922,1.754-7.917   c0.567,1.999,1.257,5.147,1.766,7.938c0.106,0.582,0.613,0.997,1.194,0.997c0.038,0,0.076-0.002,0.114-0.005   c13.074-1.223,17.583-9.237,18.529-11.286c4.854,3.91,7.247,11.817,7.247,23.912V92.096z"/><path d="M56.321,29.962h1.599c0.671,0,1.215-0.544,1.215-1.215s-0.544-1.215-1.215-1.215h-1.599c-0.671,0-1.215,0.544-1.215,1.215   S55.65,29.962,56.321,29.962z"/><path d="M42.325,29.962h1.731c0.671,0,1.215-0.544,1.215-1.215s-0.544-1.215-1.215-1.215h-1.731c-0.671,0-1.215,0.544-1.215,1.215   S41.654,29.962,42.325,29.962z"/><path d="M42.287,36.903c-0.448,0.499-0.407,1.267,0.092,1.716c0.118,0.106,2.943,2.599,7.316,2.599   c4.735,0,7.368-2.528,7.478-2.635c0.477-0.467,0.484-1.229,0.02-1.709c-0.465-0.481-1.233-0.493-1.715-0.032   c-0.083,0.08-2.084,1.947-5.782,1.947c-3.405,0-5.666-1.954-5.696-1.98C43.5,36.363,42.735,36.406,42.287,36.903z"/><path d="M74.583,31.043C71.021,13.534,63.194,5.378,49.954,5.378c-12.692,0-20.748,8.387-24.626,25.641   c-0.768,3.416-0.762,7.34-0.756,11.494l0.001,1.174c0,1.218,0,1.953,14.845,2.953c0.676,0.053,1.249-0.461,1.294-1.131   c0.002-0.028-0.011-0.053-0.011-0.082h0.076c3.516,2.059,7.574,2.336,9.456,2.336c3.936,0,6.849-0.814,9.005-2.091   c0.118,0.556,0.592,0.97,1.168,0.97c0.027,0,0.055,0,0.083-0.002c14.845-1,14.845-1.735,14.845-2.953V43.56   C75.333,38.824,75.334,34.734,74.583,31.043z M62.717,33.738c0,7.714-4.2,11.625-12.484,11.625   c-11.544,0-13.268-7.526-13.268-12.013v-9.614c0-0.405,0.039-0.982,0.15-1.64c2.331,1.032,5.992,2.331,9.674,2.331   c0.561,0,1.112-0.031,1.638-0.091c0.386-0.044,0.787-0.067,1.192-0.067c2.159,0,3.987,0.626,4.727,0.996   c0.415,0.208,1.009,0.296,1.987,0.296c1.791,0,4.569-0.31,6.385-0.539V33.738z"/></g><text x="0" y="115" fill="#000000" font-size="5px" font-weight="bold" font-family="'Helvetica Neue', Helvetica, Arial-Unicode, Arial, Sans-serif">Created by Snehal Patil</text><text x="0" y="120" fill="#000000" font-size="5px" font-weight="bold" font-family="'Helvetica Neue', Helvetica, Arial-Unicode, Arial, Sans-serif">from the Noun Project</text></svg>